# xmcd
#
# Track frame offsets: 
#        150
#        18300
#        35322
#        49969
#        69255
#        83531
#        99968
#        117972
#        133872
#
# Disc length: 1894 seconds
#
# Revision: 0
# Processed by: cddbd v1.5.2PL0 Copyright (c) Steve Scherf et al.
# Submitted via: ExactAudioCopy v0.99pb5
#
DISCID=69076409
DTITLE=Luke Womac - Luke Womac
DYEAR=2009
DGENRE=Country
TTITLE0=Have A Little Talk With Jesus
TTITLE1=My Creato
TTITLE2=Three Wooden Crosses
TTITLE3=Go Rest High On The Mountain
TTITLE4=Family Tree
TTITLE5=Patchin' It Up
TTITLE6=Because He Lives
TTITLE7=Why Me Lord
TTITLE8=I'll Fly Away
EXTD=
EXTT0=
EXTT1=
EXTT2=
EXTT3=
EXTT4=
EXTT5=
EXTT6=
EXTT7=
EXTT8=
PLAYORDER=
